<svg xmlns="http://www.w3.org/2000/svg" viewBox="0 0 64 64"><path d="M5 15q0-5 5-5h13.5q2 0 3.4 1.5L31 16h23q5 0 5 5v29H5z" fill="#b6922a"/><rect x="9" y="17" width="46" height="22" rx="2.5" fill="#fbf8f1"/><path d="M4 26q0-4 4-4h48q4 0 4 4l-2.6 26.5Q57 57 52.5 57h-41Q7 57 6.6 52.5z" fill="#e2b52c"/><path d="M8.5 25.5h47" fill="none" stroke="#eed380" stroke-width="1.6" stroke-linecap="round" stroke-linejoin="round"/><path d="M32 27a9 9 0 0 0-5 16.5V46h10v-2.5A9 9 0 0 0 32 27z" fill="#7e6627"/><rect x="27" y="48" width="10" height="3.5" rx="1.5" fill="#7e6627"/></svg>
